<?xml version="1.0" encoding="UTF-8"?>
<!DOCTYPE svg PUBLIC "-//W3C//DTD SVG 1.1//EN" "http://www.w3.org/Graphics/SVG/1.1/DTD/svg11.dtd">
<svg xmlns="http://www.w3.org/2000/svg" version="1.1" width="1500px" height="1500px" style="shape-rendering:geometricPrecision; text-rendering:geometricPrecision; image-rendering:optimizeQuality; fill-rule:evenodd; clip-rule:evenodd" xmlns:xlink="http://www.w3.org/1999/xlink">
<g><path style="opacity:0.997" fill="#ffffff" d="M 1229.5,164.5 C 1245.23,180.061 1259.73,196.728 1273,214.5C 1281.76,230.59 1283.76,247.59 1279,265.5C 1275.8,279.432 1270.47,292.432 1263,304.5C 1260.16,307.675 1256.99,310.509 1253.5,313C 1181.9,357.095 1110.74,401.928 1040,447.5C 1038.93,446.809 1037.77,446.309 1036.5,446C 1029.5,437.667 1022.5,429.333 1015.5,421C 1016.17,419.667 1016.83,418.333 1017.5,417C 1088.46,378.328 1158.13,337.662 1226.5,295C 1234.25,289.924 1241.41,284.091 1248,277.5C 1251.7,270.984 1253.37,263.984 1253,256.5C 1249.49,262.191 1245.49,267.524 1241,272.5C 1223.65,287.842 1205.15,301.675 1185.5,314C 1128.11,348.699 1069.78,381.866 1010.5,413.5C 1008.74,412.872 1007.24,411.872 1006,410.5C 990.012,391.18 973.678,372.18 957,353.5C 956.349,351.765 956.515,350.098 957.5,348.5C 1024.69,322.741 1092.03,297.241 1159.5,272C 1176.83,264.667 1194.17,257.333 1211.5,250C 1223.58,241.254 1231.75,229.754 1236,215.5C 1236.83,199.507 1234,184.174 1227.5,169.5C 1227.9,167.7 1228.57,166.033 1229.5,164.5 Z"/></g>
<g><path style="opacity:0.997" fill="#ffffff" d="M 269.5,165.5 C 270.725,166.152 271.392,167.319 271.5,169C 268.079,178.529 265.579,188.029 264,197.5C 261.509,209.914 263.842,221.248 271,231.5C 276.134,237.635 281.634,243.469 287.5,249C 305.934,257.373 324.601,265.373 343.5,273C 409.539,298.567 475.705,323.734 542,348.5C 542.667,350.167 542.667,351.833 542,353.5C 524.521,374.281 506.687,394.781 488.5,415C 487.167,415.667 485.833,415.667 484.5,415C 429.039,383.437 374.039,351.103 319.5,318C 302.557,306.723 285.89,295.056 269.5,283C 260.552,275.058 252.719,266.225 246,256.5C 246.13,263.68 248.13,270.347 252,276.5C 257.188,282.352 263.021,287.519 269.5,292C 338.199,336.688 408.199,379.355 479.5,420C 480.692,421.945 480.692,423.945 479.5,426C 474.079,432.82 468.412,439.487 462.5,446C 461.167,446.667 459.833,446.667 458.5,446C 385.367,400.364 312.367,354.531 239.5,308.5C 220.559,282.852 214.726,254.519 222,223.5C 235.747,202.574 251.58,183.241 269.5,165.5 Z"/></g>
<g><path style="opacity:0.996" fill="#ffffff" d="M 464.5,207.5 C 496.614,228.063 528.614,248.897 560.5,270C 578.167,293.667 595.833,317.333 613.5,341C 612.929,342.205 612.262,343.372 611.5,344.5C 590.555,346.246 569.555,347.079 548.5,347C 520,302.808 491.834,258.308 464,213.5C 463.82,211.512 463.986,209.512 464.5,207.5 Z"/></g>
<g><path style="opacity:0.997" fill="#ffffff" d="M 1034.5,207.5 C 1035.88,210.933 1035.38,214.266 1033,217.5C 1005.96,260.039 979.127,302.706 952.5,345.5C 950.121,347.042 947.454,347.709 944.5,347.5C 925.831,346.75 907.164,345.917 888.5,345C 886.376,342.592 886.543,340.092 889,337.5C 906.167,315 923.333,292.5 940.5,270C 972.01,249.304 1003.34,228.47 1034.5,207.5 Z"/></g>
<g><path style="opacity:0.999" fill="#ffffff" d="M 834.5,673.5 C 834.263,674.791 834.596,675.791 835.5,676.5C 835.263,677.791 835.596,678.791 836.5,679.5C 837.61,683.051 837.61,686.551 836.5,690C 820.899,698.963 805.232,707.63 789.5,716C 762.833,716.667 736.167,716.667 709.5,716C 694.853,708.033 680.187,700.033 665.5,692C 663.878,690.705 662.545,689.205 661.5,687.5C 667.292,668.998 672.459,650.331 677,631.5C 677.954,626.38 678.454,621.213 678.5,616C 678.348,609.749 677.848,603.583 677,597.5C 679.124,593.344 682.29,590.844 686.5,590C 695.309,599.118 698.809,609.951 697,622.5C 698.583,620.089 699.583,617.422 700,614.5C 698.895,586.656 695.895,558.989 691,531.5C 629.739,495.235 568.239,459.402 506.5,424C 504.391,422.859 502.558,421.359 501,419.5C 500.48,417.711 500.813,416.044 502,414.5C 516.575,396.348 530.908,378.015 545,359.5C 547.554,356.946 550.054,354.446 552.5,352C 591.497,350.02 630.497,349.187 669.5,349.5C 675.811,357.645 682.311,365.645 689,373.5C 672.2,337.663 654.867,301.996 637,266.5C 636.262,263.788 636.929,261.455 639,259.5C 675.929,263.676 712.929,267.676 750,271.5C 787.226,267.827 824.393,263.827 861.5,259.5C 862.5,259.833 863.167,260.5 863.5,261.5C 862.811,263.444 862.311,265.444 862,267.5C 844.366,304.159 826.2,340.326 807.5,376C 809.387,376.163 810.887,375.329 812,373.5C 818.12,365.045 824.62,356.879 831.5,349C 870.514,349.15 909.514,350.15 948.5,352C 966.424,373.094 983.424,394.927 999.5,417.5C 998.96,418.748 998.293,419.915 997.5,421C 934.52,457.401 871.687,493.901 809,530.5C 803.041,558.843 800.041,587.509 800,616.5C 800.219,617.938 800.719,619.271 801.5,620.5C 802.328,616.204 802.828,611.871 803,607.5C 804.894,602.608 807.228,597.941 810,593.5C 814.353,587.896 818.186,588.229 821.5,594.5C 821.833,596 822.167,597.5 822.5,599C 820.826,606.428 820.326,613.928 821,621.5C 823.806,639.393 828.306,656.726 834.5,673.5 Z"/></g>
<g><path style="opacity:0.996" fill="#ffffff" d="M 583.5,263.5 C 595.344,267.991 607.011,272.991 618.5,278.5C 632.861,298.361 647.028,318.361 661,338.5C 661.75,341.493 660.583,343.327 657.5,344C 645.474,344.206 633.474,344.706 621.5,345.5C 619.971,345.471 618.804,344.804 618,343.5C 606.21,318.472 594.044,293.139 581.5,267.5C 582.63,266.378 583.297,265.044 583.5,263.5 Z"/></g>
<g><path style="opacity:0.994" fill="#ffffff" d="M 914.5,263.5 C 915.5,263.5 916.5,263.5 917.5,263.5C 917.662,265.527 917.495,267.527 917,269.5C 905.423,294.319 893.59,318.986 881.5,343.5C 867.153,344.764 852.82,344.764 838.5,343.5C 838.46,340.575 839.293,337.909 841,335.5C 854.333,316.833 867.667,298.167 881,279.5C 892.12,274.023 903.287,268.69 914.5,263.5 Z"/></g>
<g><path style="opacity:0.993" fill="#ffffff" d="M 247.5,318.5 C 252.584,322.474 257.418,326.808 262,331.5C 281.577,403.328 318.077,464.828 371.5,516C 377.792,520.623 383.792,525.623 389.5,531C 388.949,532.398 388.616,533.732 388.5,535C 381.408,539.434 374.408,539.434 367.5,535C 344.941,519.108 326.108,499.608 311,476.5C 281.794,429.92 260.127,379.92 246,326.5C 245.288,323.562 245.788,320.896 247.5,318.5 Z"/></g>
<g><path style="opacity:0.992" fill="#ffffff" d="M 1252.5,318.5 C 1253.22,320.218 1253.89,322.052 1254.5,324C 1240.71,375.413 1220.21,423.913 1193,469.5C 1180.72,488.123 1166.55,505.29 1150.5,521C 1142.71,527.449 1134.38,533.116 1125.5,538C 1119.39,538.805 1114.05,537.139 1109.5,533C 1157.64,493.616 1193.8,445.116 1218,387.5C 1225.51,369.472 1232.18,351.138 1238,332.5C 1242.73,327.603 1247.56,322.936 1252.5,318.5 Z"/></g>
<g><path style="opacity:0.996" fill="#ffffff" d="M 283.5,357.5 C 323.261,393.377 365.261,426.377 409.5,456.5C 411.099,461.26 412.432,466.093 413.5,471C 413.043,471.414 412.709,471.914 412.5,472.5C 418.295,490.05 416.295,506.55 406.5,522C 404.447,522.325 402.447,521.991 400.5,521C 375.815,503.472 354.315,482.638 336,458.5C 314.985,428.88 297.318,397.213 283,363.5C 282.82,361.512 282.986,359.512 283.5,357.5 Z"/></g>
<g><path style="opacity:0.996" fill="#ffffff" d="M 1215.5,357.5 C 1216.29,357.783 1216.96,358.283 1217.5,359C 1197.88,411.592 1168.21,457.592 1128.5,497C 1118.69,506.479 1108.03,514.812 1096.5,522C 1095.17,522.667 1093.83,522.667 1092.5,522C 1088.31,514.087 1085.31,505.754 1083.5,497C 1084.46,487.475 1085.63,477.975 1087,468.5C 1087.26,464.623 1088.26,460.957 1090,457.5C 1128.85,430.483 1166.35,401.65 1202.5,371C 1207.04,366.631 1211.37,362.131 1215.5,357.5 Z"/></g>
<g><path style="opacity:0.997" fill="#ffffff" d="M 495.5,423.5 C 496.873,423.343 498.207,423.51 499.5,424C 562.592,460.101 625.426,496.601 688,533.5C 690.904,551.82 693.237,570.153 695,588.5C 694.163,590.007 692.996,590.507 691.5,590C 688.87,586.368 685.87,583.035 682.5,580C 613.111,539.633 542.445,501.3 470.5,465C 466.94,462.52 466.773,459.686 470,456.5C 478.509,445.47 487.009,434.47 495.5,423.5 Z"/></g>
<g><path style="opacity:0.997" fill="#ffffff" d="M 1001.5,423.5 C 1002.98,423.238 1004.31,423.571 1005.5,424.5C 1014.19,435.357 1022.69,446.357 1031,457.5C 1031.81,459.579 1031.64,461.579 1030.5,463.5C 958.84,500.163 888.174,538.663 818.5,579C 813.981,582.522 809.815,586.355 806,590.5C 805.667,590.167 805.333,589.833 805,589.5C 806.29,571.506 808.29,553.839 811,536.5C 811.707,534.919 812.54,533.419 813.5,532C 876.393,496.059 939.06,459.892 1001.5,423.5 Z"/></g>
<g><path style="opacity:0.996" fill="#ffffff" d="M 261.5,468.5 C 263.903,468.393 265.736,469.393 267,471.5C 285.757,496.68 304.757,521.68 324,546.5C 326.129,548.909 325.796,550.909 323,552.5C 313.801,547.816 304.635,542.983 295.5,538C 249.263,524.691 202.263,513.025 154.5,503C 150.21,502.132 149.544,500.132 152.5,497C 188.993,487.628 225.327,478.128 261.5,468.5 Z"/></g>
<g><path style="opacity:0.996" fill="#ffffff" d="M 1236.5,468.5 C 1274.22,478.013 1311.89,487.68 1349.5,497.5C 1349.82,500.087 1348.48,501.92 1345.5,503C 1301.22,512.426 1257.22,523.093 1213.5,535C 1200.65,539.758 1188.32,545.591 1176.5,552.5C 1175.5,552.167 1174.83,551.5 1174.5,550.5C 1194.81,522.865 1215.47,495.531 1236.5,468.5 Z"/></g>
<g><path style="opacity:0.997" fill="#ffffff" d="M 836.5,679.5 C 836.737,678.209 836.404,677.209 835.5,676.5C 835.737,675.209 835.404,674.209 834.5,673.5C 830.544,658.006 827.377,642.339 825,626.5C 824.174,621.411 824.508,616.411 826,611.5C 831.73,605.398 838.23,600.398 845.5,596.5C 854.036,601.528 862.702,606.362 871.5,611C 924.83,625.411 966.663,609.911 997,564.5C 1007.39,543.589 1011.39,521.922 1009,499.5C 1012.98,494.023 1017.14,488.69 1021.5,483.5C 1023.17,482.167 1024.83,480.833 1026.5,479.5C 1039.37,493.534 1051.7,508.034 1063.5,523C 1081.75,531.194 1100.08,539.194 1118.5,547C 1117.81,548.067 1117.31,549.234 1117,550.5C 1068.06,577.123 1019.56,604.29 971.5,632C 938.454,650.848 906.787,671.682 876.5,694.5C 873.512,697.323 870.678,700.323 868,703.5C 866.046,707.981 864.713,712.648 864,717.5C 862.927,728.13 862.427,738.797 862.5,749.5C 862.848,762.456 863.014,775.123 863,787.5C 855.478,791.119 847.644,793.953 839.5,796C 779.23,799.319 718.897,799.319 658.5,796C 651.5,793.5 644.5,791 637.5,788.5C 636.544,787.135 635.878,785.635 635.5,784C 638.755,758.026 637.922,732.193 633,706.5C 630.955,703.577 628.788,700.743 626.5,698C 605.252,680.747 582.919,665.08 559.5,651C 503.568,617.198 446.568,585.198 388.5,555C 385.764,553.638 383.431,551.804 381.5,549.5C 382.032,547.259 383.365,545.759 385.5,545C 402.136,538.018 418.803,531.018 435.5,524C 448.138,509.359 460.804,494.692 473.5,480C 474.167,479.333 474.833,479.333 475.5,480C 480.333,485.5 485.167,491 490,496.5C 485.975,550.305 508.475,588.138 557.5,610C 584.132,619.167 610.465,618.5 636.5,608C 642.539,603.649 648.872,599.815 655.5,596.5C 662.013,599.836 667.846,604.17 673,609.5C 674.586,616.057 674.92,622.724 674,629.5C 671.1,646.766 667.1,663.766 662,680.5C 656.742,685.743 651.409,685.743 646,680.5C 647.02,687.245 648.686,693.912 651,700.5C 664.72,709.616 678.886,718.116 693.5,726C 696.809,730.776 695.642,733.942 690,735.5C 678.458,730.545 667.124,725.212 656,719.5C 655.254,722.789 656.42,725.289 659.5,727C 679.295,737.398 698.961,748.065 718.5,759C 729.282,760.524 740.115,761.69 751,762.5C 761.528,761.451 772.028,760.284 782.5,759C 802.286,747.532 822.286,736.532 842.5,726C 843.591,723.936 843.758,721.769 843,719.5C 832.851,724.663 822.684,729.83 812.5,735C 808.139,736.153 805.139,734.653 803.5,730.5C 804.301,727.867 805.967,726.033 808.5,725C 821.795,718.019 834.795,710.519 847.5,702.5C 850.79,695.325 852.79,687.992 853.5,680.5C 847.253,686.166 841.586,685.833 836.5,679.5 Z"/></g>
<g><path style="opacity:0.995" fill="#ffffff" d="M 499.5,509.5 C 507.533,517.832 515.367,526.498 523,535.5C 526,542.833 529,550.167 532,557.5C 543.943,568.897 557.776,577.397 573.5,583C 584.362,586.466 595.362,589.466 606.5,592C 619.265,592.846 631.765,591.346 644,587.5C 648.586,588.408 650.252,591.074 649,595.5C 623.403,612.516 595.57,617.349 565.5,610C 527.64,597.134 505.14,570.967 498,531.5C 496.99,523.999 497.49,516.665 499.5,509.5 Z"/></g>
<g><path style="opacity:0.992" fill="#ffffff" d="M 999.5,509.5 C 1000.12,509.611 1000.62,509.944 1001,510.5C 1003.01,559.798 981.014,593.131 935,610.5C 905.173,617.352 877.173,612.685 851,596.5C 850.05,591.924 851.883,588.924 856.5,587.5C 868.567,591.281 880.9,592.781 893.5,592C 920.914,587.538 945.414,576.705 967,559.5C 970.075,551.686 973.409,544.02 977,536.5C 984.764,527.583 992.264,518.583 999.5,509.5 Z"/></g>
<g><path style="opacity:1" fill="#ffffff" d="M 543.5,508.5 C 547.511,508.502 551.178,509.668 554.5,512C 577.167,524.333 599.833,536.667 622.5,549C 625.925,551.285 626.425,554.118 624,557.5C 622.527,559.007 620.693,559.674 618.5,559.5C 613.471,558.66 608.471,557.66 603.5,556.5C 583.155,566.675 566.321,562.675 553,544.5C 550.136,537.462 548.469,530.128 548,522.5C 546.185,520.595 544.185,518.928 542,517.5C 541.207,514.259 541.707,511.259 543.5,508.5 Z"/></g>
<g><path style="opacity:1" fill="#ffffff" d="M 547.5,511.5 C 546.414,511.62 545.747,512.287 545.5,513.5C 545.846,514.849 546.179,516.183 546.5,517.5C 543.408,516.505 542.741,514.505 544.5,511.5C 545.614,510.224 546.614,510.224 547.5,511.5 Z"/></g>
<g><path style="opacity:1" fill="#ffffff" d="M 953.5,507.5 C 955.39,507.297 956.89,507.963 958,509.5C 958.584,512.257 958.25,514.923 957,517.5C 954.973,519.527 952.973,521.527 951,523.5C 950.905,542.196 942.071,554.696 924.5,561C 914.23,562.936 904.73,561.103 896,555.5C 889.571,558.615 882.905,559.615 876,558.5C 874.18,555.596 874.346,552.763 876.5,550C 902.55,536.313 928.217,522.146 953.5,507.5 Z"/></g>
<g><path style="opacity:1" fill="#ffffff" d="M 952.5,517.5 C 953.626,516.142 953.626,514.808 952.5,513.5C 950.382,514.946 948.049,515.613 945.5,515.5C 948.687,513.65 951.853,511.65 955,509.5C 956.632,511.707 956.632,514.04 955,516.5C 954.329,517.252 953.496,517.586 952.5,517.5 Z"/></g>
<g><path style="opacity:0.941" fill="#ffffff" d="M 952.5,517.5 C 952.19,519.144 951.19,520.144 949.5,520.5C 949.81,518.856 950.81,517.856 952.5,517.5 Z"/></g>
<g><path style="opacity:0.733" fill="#ffffff" d="M 546.5,517.5 C 548.716,518.203 550.549,519.536 552,521.5C 552.58,528.65 553.914,535.65 556,542.5C 559.002,546.334 562.169,550 565.5,553.5C 556.154,547.701 551.154,539.201 550.5,528C 550.833,526.333 551.167,524.667 551.5,523C 549.627,521.296 547.96,519.463 546.5,517.5 Z"/></g>
<g><path style="opacity:1" fill="#ffffff" d="M 945.5,515.5 C 942.795,519.193 939.128,521.193 934.5,521.5C 937.999,519.25 941.665,517.25 945.5,515.5 Z"/></g>
<g><path style="opacity:1" fill="#ffffff" d="M 949.5,520.5 C 948.733,524.415 948.233,528.415 948,532.5C 947.833,530.5 947.667,528.5 947.5,526.5C 947.539,524.048 948.206,522.048 949.5,520.5 Z"/></g>
<g><path style="opacity:1" fill="#ffffff" d="M 547.5,511.5 C 569.365,522.931 591.032,534.597 612.5,546.5C 611.127,546.657 609.793,546.49 608.5,546C 590.376,535.607 572.043,525.774 553.5,516.5C 551.469,514.825 549.469,513.159 547.5,511.5 Z"/></g>
<g><path style="opacity:1" fill="#ffffff" d="M 934.5,521.5 C 931.873,525.315 928.206,527.315 923.5,527.5C 926.999,525.25 930.665,523.25 934.5,521.5 Z"/></g>
<g><path style="opacity:1" fill="#ffffff" d="M 923.5,527.5 C 921.441,529.594 919.107,531.428 916.5,533C 915.207,533.49 913.873,533.657 912.5,533.5C 915.723,530.753 919.389,528.753 923.5,527.5 Z"/></g>
<g><path style="opacity:1" fill="#ffffff" d="M 912.5,533.5 C 909.795,537.193 906.128,539.193 901.5,539.5C 904.999,537.25 908.665,535.25 912.5,533.5 Z"/></g>
<g><path style="opacity:0.896" fill="#ffffff" d="M 945.5,535.5 C 946.117,539.996 944.617,543.996 941,547.5C 942.709,543.718 944.209,539.718 945.5,535.5 Z"/></g>
<g><path style="opacity:1" fill="#ffffff" d="M 901.5,539.5 C 899.236,541.314 896.903,543.147 894.5,545C 893.207,545.49 891.873,545.657 890.5,545.5C 893.678,542.742 897.345,540.742 901.5,539.5 Z"/></g>
<g><path style="opacity:0.839" fill="#ffffff" d="M 890.5,545.5 C 888.441,547.594 886.107,549.428 883.5,551C 881.975,552.009 880.308,552.509 878.5,552.5C 878.5,553.833 878.5,555.167 878.5,556.5C 880.199,556.34 881.866,556.506 883.5,557C 881.421,557.808 879.421,557.641 877.5,556.5C 876.385,555.402 876.385,554.235 877.5,553C 881.483,549.842 885.816,547.342 890.5,545.5 Z"/></g>
<g><path style="opacity:0.896" fill="#ffffff" d="M 933.5,552.5 C 935.379,552.393 935.712,552.893 934.5,554C 931.942,555.626 929.275,556.626 926.5,557C 928.898,555.476 931.231,553.976 933.5,552.5 Z"/></g>
<g><path style="opacity:1" fill="#ffffff" d="M 565.5,553.5 C 566.756,553.461 567.756,553.961 568.5,555C 567.002,555.585 566.002,555.085 565.5,553.5 Z"/></g>
<g><path style="opacity:0.694" fill="#ffffff" d="M 605.5,553.5 C 601.317,554.257 597.317,555.59 593.5,557.5C 596.889,553.781 600.889,552.448 605.5,553.5 Z"/></g>
<g><path style="opacity:1" fill="#ffffff" d="M 605.5,553.5 C 608.067,553.721 610.401,554.388 612.5,555.5C 609.772,555.829 607.438,555.163 605.5,553.5 Z"/></g>
<g><path style="opacity:1" fill="#ffffff" d="M 898.5,554.5 C 899.497,553.287 900.497,553.454 901.5,555C 900.423,555.47 899.423,555.303 898.5,554.5 Z"/></g>
<g><path style="opacity:1" fill="#ffffff" d="M 612.5,546.5 C 616.469,548.151 620.135,550.318 623.5,553C 622.833,554.333 622.167,555.667 621.5,557C 618.183,557.781 615.183,557.281 612.5,555.5C 615.167,555.5 617.833,555.5 620.5,555.5C 620.762,554.022 620.429,552.689 619.5,551.5C 616.501,550.524 614.168,548.858 612.5,546.5 Z"/></g>
<g><path style="opacity:1" fill="#ffffff" d="M 593.5,557.5 C 592.737,558.268 591.737,558.768 590.5,559C 585.167,559.667 579.833,559.667 574.5,559C 580.857,558.654 587.19,558.154 593.5,557.5 Z"/></g>
<g><path style="opacity:1" fill="#ffffff" d="M 906.5,558.5 C 906.917,557.876 907.584,557.543 908.5,557.5C 913.47,558.229 918.47,558.729 923.5,559C 917.796,559.687 912.13,559.521 906.5,558.5 Z"/></g>
<g><path style="opacity:0.998" fill="#ffffff" d="M 380.5,562.5 C 382.655,562.372 384.655,562.872 386.5,564C 449.941,599.892 513.608,635.558 577.5,671C 578.138,672.707 578.138,674.54 577.5,676.5C 410.059,679.841 242.392,683.175 74.5,686.5C 69.7832,686.473 65.1165,686.14 60.5,685.5C 59.1667,684.167 59.1667,682.833 60.5,681.5C 167.332,641.784 273.999,602.118 380.5,562.5 Z"/></g>
<g><path style="opacity:0.998" fill="#ffffff" d="M 1115.5,562.5 C 1203.53,593.565 1291.19,625.732 1378.5,659C 1399.1,666.47 1419.76,673.637 1440.5,680.5C 1440.67,682.993 1439.67,684.826 1437.5,686C 1265.36,683.27 1093.36,680.103 921.5,676.5C 921.215,674.712 921.548,673.045 922.5,671.5C 985.332,636.199 1048.33,601.032 1111.5,566C 1113.09,565.051 1114.43,563.885 1115.5,562.5 Z"/></g>
<g><path style="opacity:0.999" fill="#ffffff" d="M 497.5,709.5 C 530.473,711.8 563.14,714.967 595.5,719C 603.772,723.79 608.772,730.956 610.5,740.5C 610.24,742.187 609.573,743.687 608.5,745C 445.296,856.096 281.963,966.929 118.5,1077.5C 116.717,1076.65 116.217,1075.32 117,1073.5C 183.716,975.112 250.05,876.445 316,777.5C 317.5,776 319,774.5 320.5,773C 379.607,751.763 438.607,730.596 497.5,709.5 Z"/></g>
<g><path style="opacity:0.999" fill="#ffffff" d="M 997.5,709.5 C 1000.61,709.351 1003.61,709.851 1006.5,711C 1064.53,731.686 1122.53,752.353 1180.5,773C 1248.66,872.988 1316.33,973.321 1383.5,1074C 1382.38,1077.57 1380.38,1078.23 1377.5,1076C 1215.33,965.414 1052.99,855.081 890.5,745C 889.484,733.049 894.484,724.382 905.5,719C 936.251,715.308 966.918,712.141 997.5,709.5 Z"/></g>
<g><path style="opacity:0.996" fill="#ffffff" d="M 659.5,797.5 C 718.334,800.117 777.167,800.117 836,797.5C 837.894,797.58 839.727,797.913 841.5,798.5C 843.489,803.275 844.656,808.275 845,813.5C 846.971,827.629 848.471,841.795 849.5,856C 848.632,874.914 846.966,893.747 844.5,912.5C 842.286,912.709 840.619,911.876 839.5,910C 829.728,886.959 819.562,864.126 809,841.5C 808.13,842.108 807.63,842.941 807.5,844C 811.823,856.378 812.323,868.878 809,881.5C 807.359,886.759 805.525,891.926 803.5,897C 801.112,897.865 799.612,897.032 799,894.5C 793.885,879.816 788.385,865.316 782.5,851C 780.299,850.175 778.466,850.675 777,852.5C 775.891,859.485 774.891,866.485 774,873.5C 773.182,879.507 770.182,883.84 765,886.5C 763.779,885.728 762.779,884.728 762,883.5C 759.489,872.625 755.822,862.292 751,852.5C 749.333,853.167 747.667,853.833 746,854.5C 743.007,864.49 740.007,874.49 737,884.5C 736.261,885.574 735.261,886.241 734,886.5C 731.719,885.224 729.719,883.557 728,881.5C 725.357,871.643 723.357,861.643 722,851.5C 719.67,849.968 717.67,850.302 716,852.5C 711,865.833 706,879.167 701,892.5C 699.107,898.484 696.774,898.818 694,893.5C 691.202,884.975 689.036,876.309 687.5,867.5C 688.414,859.019 690.08,850.686 692.5,842.5C 692.192,841.692 691.692,841.025 691,840.5C 680.426,862.548 670.426,884.881 661,907.5C 660.044,910.403 658.211,911.903 655.5,912C 652.664,893.48 650.664,874.814 649.5,856C 651.26,840.496 653.093,824.996 655,809.5C 655.43,805.038 656.93,801.038 659.5,797.5 Z"/></g>
<g><path style="opacity:0.998" fill="#ffffff" d="M 607.5,882.5 C 608.725,883.152 609.392,884.319 609.5,886C 608.155,889.192 606.655,892.359 605,895.5C 533.47,1010.72 462.303,1126.22 391.5,1242C 389.393,1242.85 388.059,1242.19 387.5,1240C 405.074,1160.49 422.574,1080.66 440,1000.5C 441.027,996.392 442.36,992.392 444,988.5C 480.742,958.88 517.575,929.38 554.5,900C 562.267,896.41 570.267,893.41 578.5,891C 588.412,888.595 598.079,885.761 607.5,882.5 Z"/></g>
<g><path style="opacity:0.998" fill="#ffffff" d="M 891.5,882.5 C 909.498,886.916 927.164,892.416 944.5,899C 981.955,928.119 1019.12,957.619 1056,987.5C 1075.46,1072.29 1093.96,1157.29 1111.5,1242.5C 1110.45,1242.65 1109.45,1242.48 1108.5,1242C 1106.21,1239.26 1104.05,1236.42 1102,1233.5C 1032.06,1117.78 961.224,1002.61 889.5,888C 889.554,886.267 890.22,884.434 891.5,882.5 Z"/></g>
<g><path style="opacity:0.993" fill="#ffffff" d="M 673.5,1257.5 C 672.609,1255.39 671.442,1253.39 670,1251.5C 669.012,1248.58 668.346,1245.58 668,1242.5C 662.138,1167.14 655.471,1092.14 648,1017.5C 646.334,992.847 645.334,968.18 645,943.5C 645.29,941.956 645.956,940.623 647,939.5C 655.668,952.827 663.335,966.827 670,981.5C 672.76,987.541 674.427,993.874 675,1000.5C 677.358,1032.51 679.858,1064.51 682.5,1096.5C 681.878,1102.08 680.378,1107.41 678,1112.5C 677.268,1124.96 675.601,1137.29 673,1149.5C 671.78,1185.55 673.947,1221.38 679.5,1257C 677.888,1260.1 675.888,1260.27 673.5,1257.5 Z"/></g>
<g><path style="opacity:0.994" fill="#ffffff" d="M 852.5,939.5 C 853.825,943.276 854.491,947.443 854.5,952C 853.5,974.842 852.333,997.676 851,1020.5C 843.672,1095.44 837.006,1170.44 831,1245.5C 829.52,1250.15 827.354,1254.49 824.5,1258.5C 823.311,1259.43 821.978,1259.76 820.5,1259.5C 824.689,1225.23 827.022,1190.9 827.5,1156.5C 824.247,1140.98 822.08,1125.31 821,1109.5C 818.941,1106.05 817.441,1102.38 816.5,1098.5C 819.426,1064.2 822.26,1029.87 825,995.5C 832.332,975.837 841.499,957.17 852.5,939.5 Z"/></g>
<g><path style="opacity:0.996" fill="#ffffff" d="M 704.5,1077.5 C 704.672,1076.51 704.338,1075.84 703.5,1075.5C 703.672,1074.51 703.338,1073.84 702.5,1073.5C 702.672,1072.51 702.338,1071.84 701.5,1071.5C 700.185,1066.57 699.019,1061.57 698,1056.5C 695.479,1031.2 693.812,1005.87 693,980.5C 693.29,978.956 693.956,977.623 695,976.5C 712.287,989.452 729.287,1002.79 746,1016.5C 747.241,1030.47 748.241,1044.47 749,1058.5C 750.458,1046.54 751.458,1034.54 752,1022.5C 752.249,1019.82 753.249,1017.49 755,1015.5C 771.486,1002.26 788.152,989.258 805,976.5C 805.333,976.833 805.667,977.167 806,977.5C 805.777,996.524 804.777,1015.52 803,1034.5C 802.324,1044.6 800.991,1054.6 799,1064.5C 797.631,1070.28 795.297,1075.62 792,1080.5C 785.622,1089.42 779.122,1098.26 772.5,1107C 770.232,1108.55 767.732,1109.39 765,1109.5C 759.839,1108.79 754.672,1108.13 749.5,1107.5C 742.677,1109.03 735.843,1109.36 729,1108.5C 727.326,1107.16 725.659,1105.83 724,1104.5C 717.637,1095.32 711.137,1086.32 704.5,1077.5 Z"/></g>
<g><path style="opacity:0.992" fill="#ffffff" d="M 701.5,1071.5 C 701.328,1072.49 701.662,1073.16 702.5,1073.5C 702.328,1074.49 702.662,1075.16 703.5,1075.5C 703.328,1076.49 703.662,1077.16 704.5,1077.5C 709.852,1089.7 716.852,1100.87 725.5,1111C 733.873,1111.41 742.206,1110.91 750.5,1109.5C 758.794,1110.91 767.127,1111.41 775.5,1111C 784.63,1099.92 792.13,1087.75 798,1074.5C 798.853,1072.88 799.853,1072.54 801,1073.5C 801.905,1082.55 803.072,1091.55 804.5,1100.5C 803.787,1102.78 803.287,1105.11 803,1107.5C 797.937,1115.9 792.104,1123.73 785.5,1131C 780.372,1134.6 774.705,1135.93 768.5,1135C 763.533,1131.03 758.866,1126.7 754.5,1122C 751.036,1121.18 747.702,1121.52 744.5,1123C 740.644,1126.1 736.977,1129.43 733.5,1133C 731.361,1134.4 729.028,1135.24 726.5,1135.5C 722.675,1134.84 719.008,1133.67 715.5,1132C 707.859,1124.7 701.359,1116.53 696,1107.5C 696.183,1096.94 696.849,1086.6 698,1076.5C 699.189,1074.77 700.356,1073.1 701.5,1071.5 Z"/></g>
<g><path style="opacity:0.995" fill="#ffffff" d="M 680.5,1141.5 C 682.263,1143.89 683.763,1146.55 685,1149.5C 694.413,1174.74 704.413,1199.74 715,1224.5C 716.727,1220.28 719.56,1217.28 723.5,1215.5C 725.071,1218.78 726.738,1222.11 728.5,1225.5C 730.833,1222.17 733.167,1218.83 735.5,1215.5C 737.823,1218.13 740.157,1220.79 742.5,1223.5C 744.697,1219.76 747.364,1216.43 750.5,1213.5C 753.243,1216.65 755.743,1219.99 758,1223.5C 760.007,1220.66 762.174,1218 764.5,1215.5C 767.075,1218.32 769.408,1221.32 771.5,1224.5C 773.998,1221.51 776.498,1218.51 779,1215.5C 780.991,1218.14 782.991,1220.8 785,1223.5C 795.245,1199.77 804.911,1175.77 814,1151.5C 815.497,1147.84 817.497,1144.5 820,1141.5C 822.377,1162.43 823.044,1183.43 822,1204.5C 819.589,1222.79 817.589,1241.12 816,1259.5C 815.311,1260.36 814.478,1261.02 813.5,1261.5C 809.4,1260.28 805.4,1258.78 801.5,1257C 799.78,1253.66 798.28,1250.16 797,1246.5C 795.667,1244.17 793.667,1243.17 791,1243.5C 777.182,1246.58 763.348,1249.58 749.5,1252.5C 736.763,1249.98 724.097,1247.15 711.5,1244C 709.167,1243.33 706.833,1243.33 704.5,1244C 701.872,1248.2 699.539,1252.53 697.5,1257C 693.36,1259.25 689.027,1260.59 684.5,1261C 683.055,1256.96 682.055,1252.8 681.5,1248.5C 681.068,1232.92 679.568,1217.26 677,1201.5C 676.409,1184.82 676.742,1168.15 678,1151.5C 678.307,1147.95 679.14,1144.62 680.5,1141.5 Z"/></g>
<g><path style="opacity:0.997" fill="#ffffff" d="M 673.5,1257.5 C 676.775,1262.11 680.442,1266.45 684.5,1270.5C 691.909,1267.03 699.576,1264.36 707.5,1262.5C 721.658,1263.94 735.824,1265.28 750,1266.5C 764.363,1265.5 778.697,1264.16 793,1262.5C 800.511,1264.23 807.844,1266.56 815,1269.5C 815.833,1269.33 816.667,1269.17 817.5,1269C 821.343,1264.33 825.343,1259.83 829.5,1255.5C 830.244,1256.99 830.91,1258.49 831.5,1260C 826.081,1285.09 820.914,1310.26 816,1335.5C 815.5,1336 815,1336.5 814.5,1337C 771.034,1340.28 727.7,1340.28 684.5,1337C 684,1336.5 683.5,1336 683,1335.5C 678.666,1312.83 674.332,1290.16 670,1267.5C 669.333,1264.83 669.333,1262.17 670,1259.5C 670.816,1258.18 671.983,1257.51 673.5,1257.5 Z"/></g>
</svg>
