<?xml version="1.0" standalone="no"?>
<!DOCTYPE svg PUBLIC "-//W3C//DTD SVG 20010904//EN"
 "http://www.w3.org/TR/2001/REC-SVG-20010904/DTD/svg10.dtd">
<svg version="1.0" xmlns="http://www.w3.org/2000/svg"
 width="1000.000000pt" height="1000.000000pt" viewBox="0 0 1000.000000 1000.000000"
 preserveAspectRatio="xMidYMid meet">

<g transform="translate(0.000000,1000.000000) scale(0.100000,-0.100000)" stroke="none">
<path d="M5087 9923 c-4 -3 -7 -59 -7 -123 0 -92 3 -120 15 -130 12 -10 15
-49 15 -230 0 -181 3 -220 15 -230 12 -10 15 -45 15 -191 0 -113 4 -179 10
-179 6 0 10 -53 10 -139 0 -111 3 -141 15 -151 12 -10 15 -36 15 -114 0 -89
-2 -104 -20 -119 -26 -22 -40 -22 -40 2 0 10 -7 24 -15 31 -8 7 -15 20 -15 30
0 10 -7 23 -15 30 -11 9 -15 34 -15 96 0 45 -4 86 -10 89 -6 4 -10 71 -10 169
0 133 -3 166 -15 176 -12 10 -15 40 -15 150 0 110 -3 140 -15 150 -11 9 -15
33 -15 92 0 97 -16 121 -76 116 -37 -3 -39 -5 -42 -38 -2 -19 -10 -39 -18 -43
-8 -4 -14 -23 -14 -42 0 -19 -4 -35 -10 -35 -5 0 -10 -23 -10 -50 0 -36 -4
-52 -15 -56 -11 -5 -15 -23 -15 -79 0 -52 -4 -76 -15 -85 -13 -11 -15 -56 -15
-296 0 -178 -4 -285 -10 -289 -6 -4 -10 -138 -10 -370 0 -310 -2 -366 -15
-379 -13 -12 -15 -76 -15 -444 0 -370 -2 -431 -15 -442 -9 -8 -15 -29 -15 -56
0 -23 -4 -46 -10 -49 -5 -3 -10 -19 -10 -35 0 -16 -7 -35 -15 -44 -10 -9 -15
-34 -15 -69 0 -36 -5 -59 -15 -67 -11 -9 -15 -34 -15 -96 0 -45 -4 -86 -10
-89 -6 -4 -10 -80 -10 -195 0 -154 -3 -191 -15 -204 -11 -11 -15 -37 -15 -101
0 -67 -3 -87 -15 -91 -13 -5 -15 -72 -15 -514 0 -439 2 -509 15 -520 8 -7 15
-20 15 -29 0 -9 54 -70 120 -136 66 -66 120 -126 120 -134 0 -7 11 -24 25 -37
16 -14 25 -34 25 -52 0 -16 7 -35 15 -42 8 -7 15 -19 15 -27 0 -8 7 -21 15
-29 10 -10 15 -35 15 -75 0 -33 4 -59 10 -59 6 0 10 -123 10 -350 0 -304 -2
-350 -15 -350 -8 0 -15 8 -15 19 0 10 -7 24 -15 31 -11 9 -15 33 -15 86 l0 74
-58 0 c-57 0 -58 -1 -115 -58 -31 -32 -57 -65 -57 -73 0 -9 -11 -25 -25 -35
-22 -16 -25 -26 -25 -78 0 -50 4 -62 25 -82 14 -13 25 -27 25 -32 0 -5 11 -30
25 -56 21 -39 25 -61 25 -125 0 -58 4 -82 15 -91 12 -10 15 -43 15 -175 0
-132 3 -165 15 -175 20 -17 20 -113 0 -134 -11 -11 -15 -38 -15 -109 0 -72 -4
-98 -15 -107 -10 -8 -15 -30 -15 -61 0 -27 -4 -49 -10 -49 -13 0 -13 -227 0
-235 6 -3 10 -19 10 -34 0 -16 7 -34 15 -41 8 -7 15 -20 15 -30 0 -10 7 -23
15 -30 8 -7 15 -21 15 -31 0 -11 5 -19 10 -19 6 0 10 -28 10 -64 0 -48 4 -65
15 -70 11 -4 15 -23 15 -79 0 -54 4 -78 15 -87 9 -8 15 -30 15 -56 0 -24 5
-44 10 -44 6 0 10 -28 10 -64 0 -48 4 -65 15 -70 9 -3 15 -18 15 -39 0 -19 7
-40 15 -47 9 -8 15 -29 15 -56 0 -23 5 -46 10 -49 6 -3 10 -26 10 -49 0 -27 6
-48 15 -56 10 -8 15 -31 15 -67 0 -35 5 -60 15 -69 10 -10 15 -35 15 -69 0
-30 5 -57 10 -60 6 -3 10 -32 10 -64 0 -40 5 -63 15 -71 9 -7 15 -29 15 -55 0
-26 6 -48 15 -55 9 -8 15 -29 15 -56 0 -23 5 -46 10 -49 6 -3 10 -25 10 -49 0
-35 6 -48 33 -74 29 -28 39 -32 90 -32 l57 0 0 155 c0 129 3 157 15 161 12 5
15 27 15 110 0 63 4 104 10 104 6 0 10 35 10 84 0 62 4 89 15 100 11 11 15 37
15 99 0 66 3 86 15 91 12 4 15 25 15 96 0 53 4 90 10 90 6 0 10 45 10 114 0
89 3 116 15 126 11 10 15 36 15 112 0 78 3 100 15 104 12 5 15 25 15 94 0 49
4 92 10 95 6 3 10 51 10 109 0 74 4 107 15 122 10 14 14 48 15 130 0 90 3 113
15 118 12 4 15 30 15 145 0 82 4 142 10 146 6 4 10 74 10 179 0 136 3 176 15
192 8 10 15 27 15 37 0 10 7 20 15 23 9 4 15 19 15 39 0 18 7 38 15 45 19 16
19 41 0 66 -8 10 -15 30 -15 43 0 13 -13 39 -30 58 -16 18 -30 40 -30 47 0 7
-11 23 -25 36 -14 13 -25 30 -25 38 0 8 -11 25 -25 38 -14 13 -25 29 -25 37 0
7 -13 26 -30 42 -16 16 -30 37 -30 47 0 15 -8 18 -45 18 -37 0 -45 -3 -45 -19
0 -10 -7 -24 -15 -31 -11 -9 -15 -32 -15 -81 0 -56 -4 -73 -20 -89 -11 -11
-22 -20 -25 -20 -12 0 -45 41 -45 56 0 8 -7 22 -15 30 -10 11 -15 36 -15 85 0
53 4 71 15 75 11 4 15 21 15 55 0 35 4 51 15 55 9 4 15 19 15 39 0 19 5 37 10
40 6 3 10 37 10 74 0 49 4 72 15 81 9 8 15 30 15 60 0 33 5 50 15 54 9 3 15
18 15 40 0 19 5 38 10 41 6 3 10 19 10 34 0 16 7 34 15 41 8 7 15 20 15 30 0
10 7 23 15 30 8 7 15 23 15 36 0 12 11 44 25 70 14 26 25 51 25 56 0 4 18 25
40 47 22 21 40 45 40 53 0 7 32 45 70 83 39 38 70 77 70 87 0 9 5 20 10 23 6
3 10 48 10 100 0 52 -4 97 -10 100 -5 3 -10 40 -10 81 0 57 -4 76 -15 80 -12
5 -15 30 -15 134 0 101 -3 130 -15 140 -12 10 -15 38 -15 135 0 97 -3 125 -15
135 -12 10 -15 41 -15 161 0 88 -4 150 -10 154 -6 4 -10 69 -10 161 0 128 -3
156 -15 160 -12 5 -15 31 -15 146 0 111 -3 143 -15 154 -12 13 -15 48 -15 189
0 105 -4 176 -10 180 -6 4 -10 82 -10 201 0 164 -2 196 -15 200 -13 5 -15 43
-15 254 0 208 -2 250 -15 260 -13 10 -15 53 -15 271 0 166 -4 259 -10 259 -6
0 -10 53 -10 139 0 111 -3 141 -15 151 -11 10 -15 35 -15 110 0 75 -4 100 -15
110 -11 9 -15 32 -15 81 0 37 -4 71 -10 74 -6 3 -10 50 -10 104 0 75 -4 101
-15 111 -11 9 -15 34 -15 95 0 61 -4 86 -15 95 -12 10 -15 37 -15 126 0 69 -4
114 -10 114 -6 0 -10 31 -10 74 0 53 -4 77 -15 86 -8 7 -15 19 -15 26 0 37
-69 72 -93 47z"/>
<path d="M7712 9118 c-6 -6 -12 -31 -12 -55 0 -24 -4 -43 -10 -43 -5 0 -10
-23 -10 -50 0 -36 -4 -52 -15 -56 -8 -4 -15 -14 -15 -23 0 -10 -11 -28 -25
-41 -14 -13 -25 -31 -25 -41 0 -9 -7 -22 -15 -29 -8 -7 -15 -20 -15 -30 0 -10
-7 -23 -15 -30 -8 -7 -15 -25 -15 -41 0 -15 -4 -31 -10 -34 -5 -3 -10 -19 -10
-34 0 -16 -7 -34 -15 -41 -8 -7 -15 -20 -15 -30 0 -10 -7 -23 -15 -30 -8 -7
-15 -28 -15 -46 0 -19 -4 -34 -10 -34 -5 0 -10 -8 -10 -19 0 -10 -7 -24 -15
-31 -8 -7 -15 -21 -15 -32 0 -10 -7 -21 -15 -24 -9 -4 -15 -19 -15 -39 0 -19
-4 -37 -10 -40 -5 -3 -10 -19 -10 -34 0 -16 -7 -34 -15 -41 -8 -7 -15 -28 -15
-47 0 -21 -6 -36 -15 -39 -9 -4 -15 -19 -15 -39 0 -19 -4 -37 -10 -40 -5 -3
-10 -19 -10 -35 0 -16 -7 -35 -15 -44 -9 -8 -15 -33 -15 -59 0 -31 -5 -47 -15
-51 -9 -3 -15 -18 -15 -40 0 -19 -4 -38 -10 -41 -5 -3 -10 -26 -10 -51 0 -30
-5 -46 -15 -50 -9 -4 -15 -19 -15 -39 0 -18 -7 -38 -15 -45 -8 -7 -15 -28 -15
-46 0 -19 -4 -34 -10 -34 -5 0 -10 -15 -10 -34 0 -18 -7 -39 -15 -46 -9 -7
-15 -29 -15 -55 0 -26 -6 -48 -15 -55 -9 -8 -15 -29 -15 -56 0 -23 -4 -46 -10
-49 -5 -3 -10 -19 -10 -34 0 -16 -7 -34 -15 -41 -8 -7 -15 -28 -15 -47 0 -21
-6 -36 -15 -39 -8 -4 -15 -14 -15 -24 0 -11 -4 -22 -10 -25 -5 -3 -10 -14 -10
-24 0 -10 -7 -24 -15 -31 -8 -7 -15 -25 -15 -40 0 -15 -7 -33 -15 -40 -10 -8
-15 -30 -15 -61 0 -27 -4 -49 -10 -49 -5 0 -10 -24 -10 -53 0 -31 -6 -61 -15
-73 -8 -10 -15 -38 -15 -60 0 -24 -6 -47 -15 -54 -8 -7 -15 -17 -15 -23 0 -18
-33 -87 -42 -87 -4 0 -8 -15 -8 -34 0 -18 -7 -39 -15 -46 -11 -9 -15 -34 -15
-96 0 -45 -4 -85 -9 -88 -5 -3 -11 -34 -13 -68 -3 -35 -10 -64 -16 -66 -8 -2
-12 -30 -12 -78 0 -57 -4 -76 -15 -80 -11 -5 -15 -22 -15 -66 0 -39 -5 -64
-15 -74 -10 -10 -15 -35 -15 -69 0 -30 -4 -57 -10 -60 -5 -3 -10 -40 -10 -81
0 -57 -4 -76 -15 -80 -12 -5 -15 -25 -15 -94 0 -66 -4 -91 -15 -100 -10 -8
-15 -31 -15 -71 0 -34 -4 -59 -10 -59 -7 0 -10 -45 -8 -127 3 -124 4 -128 26
-131 12 -2 22 -8 22 -13 0 -5 27 -9 60 -9 59 0 60 0 60 29 0 16 7 34 15 41 8
7 15 28 15 47 0 21 6 36 15 39 8 4 15 14 15 23 0 22 65 85 79 77 17 -11 14
-91 -4 -106 -8 -7 -15 -21 -15 -31 0 -10 -4 -21 -10 -24 -5 -3 -10 -19 -10
-34 0 -16 -7 -34 -15 -41 -9 -7 -15 -29 -15 -55 0 -26 -6 -48 -15 -55 -8 -7
-15 -29 -15 -50 0 -21 7 -43 15 -50 8 -7 15 -26 15 -42 0 -16 7 -36 15 -44 8
-9 15 -28 15 -44 0 -16 5 -32 10 -35 6 -3 10 -37 10 -74 0 -49 4 -72 15 -81
10 -9 15 -32 15 -75 0 -47 -4 -64 -15 -69 -8 -3 -15 -14 -15 -24 0 -10 -11
-29 -25 -42 -14 -13 -25 -31 -25 -41 0 -9 -7 -22 -15 -29 -8 -7 -15 -25 -15
-41 0 -15 -4 -31 -10 -34 -5 -3 -10 -23 -10 -44 0 -20 -7 -46 -15 -57 -8 -10
-15 -27 -15 -37 0 -10 -7 -20 -15 -23 -8 -4 -15 -15 -15 -26 0 -10 -11 -29
-25 -42 -17 -15 -25 -34 -25 -55 0 -19 -6 -34 -15 -37 -8 -4 -15 -15 -15 -25
0 -11 -18 -37 -40 -58 -22 -21 -40 -45 -40 -53 0 -9 -7 -21 -15 -28 -8 -7 -15
-28 -15 -46 0 -19 -4 -34 -10 -34 -6 0 -10 -71 -10 -194 0 -160 -3 -196 -15
-206 -12 -10 -15 -41 -15 -161 l0 -149 60 0 c46 0 60 3 60 15 0 8 14 28 30 45
17 17 30 40 30 50 0 11 5 20 10 20 6 0 10 8 10 19 0 10 7 24 15 31 8 7 15 21
15 31 0 10 6 22 14 26 8 4 21 21 30 37 22 43 106 126 127 126 26 0 33 -19 15
-39 -9 -10 -16 -25 -16 -33 0 -9 -3 -18 -7 -20 -11 -5 -43 -67 -43 -84 0 -8
-6 -17 -14 -20 -7 -3 -22 -22 -32 -42 -11 -20 -29 -45 -41 -55 -13 -10 -23
-26 -23 -36 0 -9 -18 -35 -40 -56 -22 -21 -40 -47 -40 -56 0 -9 -11 -25 -25
-35 -14 -10 -25 -26 -25 -35 0 -8 -13 -29 -30 -45 -16 -16 -30 -37 -30 -46 0
-9 -5 -20 -10 -23 -6 -3 -10 -19 -10 -34 0 -16 -7 -34 -15 -41 -9 -8 -15 -30
-15 -60 0 -33 -5 -50 -15 -54 -11 -4 -15 -21 -15 -65 0 -33 -4 -63 -10 -66 -6
-4 -10 -55 -10 -121 0 -93 -3 -116 -15 -120 -9 -4 -15 -19 -15 -39 0 -18 -7
-38 -15 -45 -8 -7 -15 -21 -15 -31 0 -11 -4 -19 -10 -19 -5 0 -10 -8 -10 -19
0 -10 -7 -24 -15 -31 -23 -19 -21 -142 3 -163 10 -10 26 -17 36 -17 9 0 19 -7
22 -15 10 -26 60 -18 94 15 16 16 30 36 30 43 0 8 7 20 15 27 8 7 15 28 15 47
0 21 6 36 15 39 10 4 15 21 15 54 0 27 5 52 10 55 6 3 10 19 10 34 0 16 7 34
15 41 9 7 15 29 15 55 0 26 6 48 15 55 8 7 15 28 15 46 0 19 5 34 10 34 6 0
10 8 10 19 0 10 7 24 15 31 8 7 15 27 15 45 0 20 6 35 15 39 8 3 15 14 15 25
0 11 5 23 10 26 6 3 10 19 10 36 0 19 10 38 30 57 17 16 30 34 30 40 0 6 11
32 25 58 14 26 25 57 25 69 0 13 7 28 15 35 8 7 15 20 15 30 0 10 7 23 15 30
8 7 15 21 15 31 0 11 5 19 10 19 6 0 10 8 10 19 0 10 7 24 15 31 8 7 15 20 15
30 0 10 7 23 15 30 8 7 15 21 15 31 0 11 5 19 10 19 6 0 10 8 10 19 0 10 7 24
15 31 8 7 15 28 15 46 0 19 4 34 8 34 9 0 42 69 42 87 0 6 7 16 15 23 8 7 15
25 15 40 0 15 7 33 15 40 8 7 15 21 15 31 0 10 5 21 10 24 6 3 10 15 10 26 0
11 7 22 15 25 9 4 15 19 15 39 0 18 7 38 15 45 8 7 15 21 15 31 0 11 5 19 10
19 6 0 10 15 10 34 0 18 7 39 15 46 8 7 15 21 15 32 0 10 7 21 15 24 8 4 15
17 15 30 0 13 5 24 10 24 6 0 10 16 10 35 0 22 6 38 15 41 9 4 15 19 15 39 0
18 7 38 15 45 8 7 15 28 15 46 0 19 5 34 10 34 6 0 10 8 10 19 0 10 7 24 15
31 8 7 15 21 15 32 0 10 7 21 15 24 9 4 15 19 15 39 0 19 5 37 10 40 6 3 10
15 10 26 0 11 7 22 15 25 9 4 15 19 15 39 0 18 7 38 15 45 8 7 15 28 15 46 0
19 5 34 10 34 6 0 10 8 10 19 0 10 7 24 15 31 8 7 15 27 15 45 0 20 6 35 15
39 8 3 15 14 15 25 0 11 5 23 10 26 6 3 10 14 10 24 0 10 7 24 15 31 8 7 15
25 15 40 0 15 7 33 15 40 8 7 15 28 15 46 0 19 5 34 10 34 6 0 10 8 10 19 0
10 7 24 15 31 8 7 15 20 15 30 0 10 7 23 15 30 8 7 15 21 15 31 0 11 5 19 10
19 6 0 10 15 10 34 0 18 7 39 15 46 8 7 15 21 15 32 0 10 7 21 15 24 8 4 15
14 15 23 0 10 11 28 25 41 21 20 25 33 25 82 l0 58 -43 0 c-45 0 -77 -21 -77
-51 0 -8 -13 -26 -30 -39 -16 -14 -29 -32 -30 -42 0 -20 -277 -298 -297 -298
-7 0 -35 -22 -62 -50 -27 -27 -55 -50 -63 -50 -7 0 -38 -25 -68 -55 -30 -30
-62 -55 -71 -55 -10 0 -26 -11 -37 -25 -15 -19 -29 -25 -61 -25 -40 0 -41 1
-41 36 0 31 9 45 59 95 33 32 66 59 74 59 7 0 26 14 42 30 16 17 35 30 42 30
8 0 26 11 41 25 15 14 32 25 39 25 7 0 55 43 107 95 51 52 100 95 107 95 7 0
46 33 86 72 64 63 73 77 73 108 0 27 -8 44 -30 65 -29 27 -30 33 -30 111 0 46
-4 86 -10 89 -6 4 -10 81 -10 200 0 162 -2 194 -15 199 -13 5 -15 82 -15 614
0 530 2 611 15 622 12 10 15 38 15 136 0 71 4 125 10 129 6 4 10 77 10 186 l0
179 -45 0 c-39 0 -45 -3 -45 -20 0 -11 -7 -23 -15 -26 -9 -4 -15 -19 -15 -39
0 -18 -7 -38 -15 -45 -8 -7 -15 -21 -15 -31 0 -11 -4 -19 -10 -19 -5 0 -10 -8
-10 -19 0 -10 -7 -24 -15 -31 -8 -7 -15 -28 -15 -47 0 -21 -6 -36 -15 -39 -9
-4 -15 -19 -15 -39 0 -19 -4 -37 -10 -40 -5 -3 -10 -19 -10 -34 0 -16 -7 -34
-15 -41 -8 -7 -15 -28 -15 -47 0 -21 -6 -36 -15 -39 -8 -4 -15 -17 -15 -30 0
-13 -4 -24 -10 -24 -5 0 -10 -8 -10 -18 0 -21 -73 -96 -83 -86 -11 11 -8 102
3 109 6 3 10 26 10 49 0 27 6 48 15 56 8 7 15 20 15 30 0 10 7 23 15 30 8 7
15 21 15 31 0 11 5 19 10 19 6 0 10 8 10 19 0 10 7 24 15 31 8 7 15 20 15 30
0 10 7 23 15 30 8 7 15 28 15 46 0 19 5 34 10 34 6 0 10 8 10 19 0 10 7 24 15
31 8 7 15 20 15 30 0 10 7 23 15 30 8 7 15 21 15 31 0 11 5 19 10 19 6 0 10
16 10 35 0 22 6 38 15 41 10 4 15 21 15 54 0 30 6 52 15 60 8 7 15 25 15 41 0
15 5 31 10 34 6 3 10 26 10 49 0 27 6 48 15 56 8 7 15 27 15 45 0 20 6 35 15
39 11 4 15 20 15 56 0 27 5 50 10 50 6 0 10 20 10 44 0 26 6 51 15 60 9 9 15
33 15 61 0 31 5 47 15 51 11 4 15 21 15 55 0 27 5 49 10 49 6 0 10 20 10 44 0
26 6 51 15 60 9 9 15 33 15 61 0 31 5 47 15 51 11 4 15 21 15 55 0 27 5 49 10
49 6 0 10 26 10 59 0 40 5 62 15 71 13 11 15 36 13 139 l-3 126 -35 3 c-19 2
-41 -3 -48 -10z"/>
<path d="M2467 9093 c-4 -3 -7 -167 -7 -363 0 -306 2 -359 15 -370 12 -10 15
-37 15 -125 0 -91 3 -114 15 -119 11 -4 15 -20 15 -56 0 -27 5 -50 10 -50 6 0
10 -15 10 -34 0 -18 7 -39 15 -46 11 -9 15 -34 15 -96 l0 -84 -40 -40 c-40
-40 -40 -40 -40 -119 0 -58 4 -82 15 -91 8 -7 15 -28 15 -46 0 -19 5 -34 10
-34 6 0 10 -8 10 -19 0 -10 7 -24 15 -31 8 -7 15 -27 15 -45 0 -20 6 -35 15
-39 8 -3 15 -14 15 -25 0 -11 5 -23 10 -26 6 -3 10 -15 10 -26 0 -11 7 -22 15
-25 8 -4 15 -16 15 -29 0 -13 7 -25 15 -29 9 -3 15 -19 15 -41 0 -19 5 -35 10
-35 6 0 10 -11 10 -24 0 -13 7 -26 15 -30 8 -3 15 -14 15 -24 0 -11 7 -25 15
-32 8 -7 15 -21 15 -31 0 -10 5 -21 10 -24 6 -3 10 -14 10 -25 0 -10 7 -20 15
-24 8 -3 15 -14 15 -24 0 -11 7 -25 15 -32 18 -15 22 -155 4 -165 -12 -8 -79
58 -79 78 0 7 -13 26 -30 42 -22 21 -30 38 -30 62 0 18 -4 33 -10 33 -5 0 -10
8 -10 18 0 10 -22 39 -48 65 -42 41 -53 47 -90 47 l-42 0 0 -111 c0 -85 3
-114 15 -125 9 -9 15 -34 15 -60 0 -24 5 -44 10 -44 6 0 10 -23 10 -50 0 -36
4 -52 15 -56 11 -5 15 -22 15 -69 0 -47 4 -64 15 -69 9 -3 15 -19 15 -41 0
-19 5 -35 10 -35 6 0 10 -23 10 -50 0 -36 4 -52 15 -56 13 -5 15 -52 15 -334
0 -279 2 -329 15 -340 13 -11 15 -61 15 -336 0 -204 4 -325 10 -329 6 -3 10
-13 10 -22 0 -20 412 -433 432 -433 20 0 138 -124 138 -144 0 -9 5 -16 10 -16
6 0 10 -11 10 -24 0 -13 7 -26 15 -30 8 -3 15 -14 15 -24 0 -48 98 -73 133
-34 22 24 23 114 2 132 -8 7 -15 20 -15 30 0 10 7 23 15 30 11 10 15 35 15
110 0 75 4 100 15 110 8 7 15 25 15 41 0 15 5 31 10 34 6 3 10 13 10 22 0 9
25 40 55 69 30 30 55 61 55 69 0 9 11 26 25 39 14 13 25 30 25 38 0 9 7 21 15
28 22 18 22 175 0 184 -9 3 -15 18 -15 40 0 19 -4 38 -10 41 -6 4 -10 53 -10
114 0 84 -3 111 -15 121 -11 9 -15 34 -15 100 0 69 -3 89 -15 94 -10 4 -15 20
-15 50 0 25 -4 48 -10 51 -5 3 -10 22 -10 41 0 22 -6 37 -15 40 -9 4 -15 19
-15 39 0 18 -7 38 -15 45 -9 8 -15 29 -15 56 0 23 -4 46 -10 49 -5 3 -10 26
-10 49 0 27 -6 48 -15 56 -8 7 -15 27 -15 45 0 20 -6 35 -15 39 -11 4 -15 20
-15 56 0 27 -4 50 -10 50 -5 0 -10 16 -10 35 0 22 -6 38 -15 41 -9 4 -15 19
-15 39 0 18 -7 38 -15 45 -8 7 -15 28 -15 46 0 19 -4 34 -10 34 -5 0 -10 16
-10 35 0 22 -6 38 -15 41 -11 5 -15 22 -15 69 0 47 -4 64 -15 69 -8 3 -15 14
-15 25 0 11 -4 23 -10 26 -5 3 -10 26 -10 49 0 27 -6 48 -15 56 -8 7 -15 27
-15 45 0 20 -6 35 -15 39 -9 3 -15 18 -15 39 0 19 -7 40 -15 47 -9 8 -15 29
-15 56 0 23 -4 46 -10 49 -5 3 -10 26 -10 49 0 27 -6 48 -15 56 -8 7 -15 24
-15 39 0 14 -7 35 -15 45 -8 11 -15 32 -15 48 0 15 -4 28 -10 28 -5 0 -10 15
-10 34 0 18 -7 39 -15 46 -9 7 -15 29 -15 55 0 26 -6 48 -15 55 -9 8 -15 29
-15 56 0 23 -4 46 -10 49 -5 3 -10 26 -10 49 0 27 -6 48 -15 56 -8 7 -15 20
-15 30 0 10 -7 23 -15 30 -9 8 -15 30 -15 56 0 24 -4 44 -10 44 -5 0 -10 15
-10 34 0 18 -7 39 -15 46 -8 7 -15 26 -15 42 0 16 -7 36 -15 44 -9 9 -15 34
-15 60 0 24 -4 44 -10 44 -5 0 -10 22 -10 49 0 34 -4 51 -15 55 -9 3 -15 18
-15 39 0 19 -7 40 -15 47 -8 7 -15 25 -15 41 0 15 -4 31 -10 34 -5 3 -10 26
-10 49 0 27 -6 48 -15 56 -8 7 -15 26 -15 42 0 16 -7 36 -15 44 -9 9 -15 34
-15 60 0 24 -4 44 -10 44 -5 0 -10 23 -10 50 0 36 -4 52 -15 56 -9 4 -15 19
-15 39 0 18 -7 38 -15 45 -8 7 -15 24 -15 39 0 15 -12 40 -29 59 -24 26 -38
32 -69 32 -21 0 -42 -3 -45 -7z"/>
<path d="M2490 4666 c0 -56 4 -75 15 -80 8 -3 15 -14 15 -25 0 -11 5 -23 10
-26 6 -3 10 -14 10 -24 0 -9 14 -30 30 -46 17 -16 30 -37 30 -47 0 -10 5 -18
10 -18 6 0 10 -8 10 -19 0 -10 7 -24 15 -31 8 -7 15 -20 15 -30 0 -10 7 -23
15 -30 8 -7 15 -21 15 -31 0 -11 5 -19 10 -19 6 0 10 -8 10 -19 0 -10 7 -24
15 -31 8 -7 15 -27 15 -45 0 -20 6 -35 15 -39 8 -3 15 -18 15 -32 0 -31 30
-104 42 -104 4 0 8 -11 8 -24 0 -13 7 -26 15 -30 9 -3 15 -19 15 -41 0 -19 5
-35 10 -35 6 0 10 -15 10 -34 0 -18 7 -39 15 -46 8 -7 15 -20 15 -30 0 -10 7
-20 15 -24 9 -3 15 -18 15 -40 0 -19 5 -38 10 -41 6 -3 10 -19 10 -34 0 -16 7
-34 15 -41 8 -7 15 -20 15 -30 0 -10 7 -23 15 -30 8 -7 15 -21 15 -31 0 -11 5
-19 10 -19 6 0 10 -15 10 -34 0 -18 7 -39 15 -46 8 -7 15 -27 15 -45 0 -20 6
-35 15 -39 9 -3 15 -18 15 -40 0 -19 3 -36 8 -38 14 -6 42 -70 42 -98 0 -15 7
-33 15 -40 8 -7 15 -19 15 -27 0 -8 7 -21 15 -29 8 -9 15 -29 15 -45 0 -16 5
-29 10 -29 6 0 10 -11 10 -24 0 -13 7 -26 15 -30 9 -3 15 -18 15 -39 0 -19 7
-40 15 -47 8 -7 15 -21 15 -31 0 -11 5 -19 10 -19 6 0 10 -15 10 -34 0 -18 7
-39 15 -46 8 -7 15 -25 15 -40 0 -15 7 -33 15 -40 9 -8 15 -29 15 -56 0 -23 5
-46 10 -49 6 -3 10 -21 10 -40 0 -20 6 -35 15 -39 8 -3 15 -14 15 -24 0 -11 7
-25 15 -32 8 -7 15 -20 15 -29 0 -10 11 -28 25 -41 14 -13 25 -32 25 -42 0
-10 4 -18 10 -18 5 0 12 -11 16 -24 3 -13 17 -34 30 -47 13 -12 24 -30 24 -39
0 -9 11 -27 25 -40 14 -13 25 -30 25 -38 0 -8 25 -39 55 -68 30 -30 55 -60 55
-67 0 -8 39 -53 87 -101 84 -83 89 -87 128 -84 l40 3 3 81 c2 63 -1 84 -13 94
-8 7 -15 27 -15 45 0 20 -6 35 -15 39 -8 3 -15 13 -15 23 0 10 -36 54 -80 98
-44 44 -80 86 -80 94 0 7 -11 24 -25 37 -14 13 -25 30 -25 39 0 9 -11 26 -25
39 -14 13 -25 30 -25 38 0 8 -13 27 -30 43 -16 16 -30 37 -30 46 0 10 -5 19
-12 21 -17 6 -2 38 18 38 20 0 114 -93 114 -112 0 -8 15 -28 33 -46 26 -26 41
-32 75 -32 l42 0 0 74 c0 56 -4 75 -15 80 -9 3 -15 18 -15 40 0 19 -4 38 -10
41 -5 3 -10 19 -10 34 0 16 -7 34 -15 41 -10 8 -15 31 -15 70 0 39 -5 62 -15
70 -11 9 -15 32 -15 81 0 37 -4 71 -10 74 -6 4 -10 71 -10 169 0 133 -3 166
-15 176 -11 9 -15 34 -15 100 0 69 -3 89 -15 94 -8 3 -15 13 -15 23 0 10 -40
59 -90 108 -84 84 -90 92 -90 131 0 25 -6 47 -15 54 -9 7 -15 29 -15 55 0 26
-6 48 -15 55 -8 7 -15 19 -15 28 0 8 -11 25 -25 38 -14 13 -25 30 -25 39 0 9
-18 33 -40 54 -22 21 -40 44 -40 52 0 18 -171 189 -189 189 -8 0 -56 43 -108
95 -52 52 -100 95 -107 95 -7 0 -41 29 -77 65 -35 35 -71 65 -79 65 -9 0 -45
29 -80 65 -35 36 -73 65 -83 65 -9 0 -20 7 -23 15 -4 9 -19 15 -40 15 l-34 0
0 -74z"/>
</g>
</svg>
